# MagicaVoxel @ Ephtracy

# group
o 

# material
mtllib zero.mtl
usemtl palette

# normals
vn -1 0 0
vn 1 0 0
vn 0 0 1
vn 0 0 -1
vn 0 -1 0
vn 0 1 0

# texcoords
vt 0.970703 0.5
vt 0.986328 0.5

# verts
v 0 2 0
v 0 2 -2
v 0 2.1 0
v 0 2.1 -2
v 0.1 2.1 -0.1
v 0.1 2.1 -1.9
v 0.1 2.2 -0.1
v 0.1 2.2 -1.9
v 0.6 2 -0.3
v 0.6 2 -1.7
v 0.6 2.1 -0.3
v 0.6 2.1 -1.7
v 0.7 2.1 -0.2
v 0.7 2.1 -1.8
v 0.7 2.2 -0.2
v 0.7 2.2 -1.8
v 0.2 2.1 -0.2
v 0.2 2.1 -1.8
v 0.2 2.2 -0.2
v 0.2 2.2 -1.8
v 0.3 2 -0.3
v 0.3 2 -1.7
v 0.3 2.1 -0.3
v 0.3 2.1 -1.7
v 0.8 2.1 -0.1
v 0.8 2.1 -1.9
v 0.8 2.2 -0.1
v 0.8 2.2 -1.9
v 0.9 2 0
v 0.9 2 -2
v 0.9 2.1 0
v 0.9 2.1 -2
v 0 2 0
v 0 2.1 0
v 0.9 2 0
v 0.9 2.1 0
v 0.1 2.1 -0.1
v 0.1 2.2 -0.1
v 0.8 2.1 -0.1
v 0.8 2.2 -0.1
v 0.3 2 -1.7
v 0.3 2.1 -1.7
v 0.6 2 -1.7
v 0.6 2.1 -1.7
v 0.2 2.1 -1.8
v 0.2 2.2 -1.8
v 0.7 2.1 -1.8
v 0.7 2.2 -1.8
v 0.2 2.1 -0.2
v 0.2 2.2 -0.2
v 0.7 2.1 -0.2
v 0.7 2.2 -0.2
v 0.3 2 -0.3
v 0.3 2.1 -0.3
v 0.6 2 -0.3
v 0.6 2.1 -0.3
v 0.1 2.1 -1.9
v 0.1 2.2 -1.9
v 0.8 2.1 -1.9
v 0.8 2.2 -1.9
v 0 2 -2
v 0 2.1 -2
v 0.9 2 -2
v 0.9 2.1 -2
v 0 2 0
v 0.9 2 0
v 0.3 2 -0.3
v 0.6 2 -0.3
v 0.3 2 -1.7
v 0.6 2 -1.7
v 0 2 -2
v 0.9 2 -2
v 0 2.1 0
v 0.9 2.1 0
v 0.1 2.1 -0.1
v 0.8 2.1 -0.1
v 0.2 2.1 -0.2
v 0.7 2.1 -0.2
v 0.3 2.1 -0.3
v 0.6 2.1 -0.3
v 0.3 2.1 -1.7
v 0.6 2.1 -1.7
v 0.2 2.1 -1.8
v 0.7 2.1 -1.8
v 0.1 2.1 -1.9
v 0.8 2.1 -1.9
v 0 2.1 -2
v 0.9 2.1 -2
v 0.1 2.2 -0.1
v 0.8 2.2 -0.1
v 0.2 2.2 -0.2
v 0.7 2.2 -0.2
v 0.2 2.2 -1.8
v 0.7 2.2 -1.8
v 0.1 2.2 -1.9
v 0.8 2.2 -1.9

# faces
f 3/2/1 2/2/1 1/2/1
f 4/2/1 2/2/1 3/2/1
f 7/1/1 6/1/1 5/1/1
f 8/1/1 6/1/1 7/1/1
f 11/2/1 10/2/1 9/2/1
f 12/2/1 10/2/1 11/2/1
f 15/1/1 14/1/1 13/1/1
f 16/1/1 14/1/1 15/1/1
f 17/1/2 18/1/2 19/1/2
f 19/1/2 18/1/2 20/1/2
f 21/2/2 22/2/2 23/2/2
f 23/2/2 22/2/2 24/2/2
f 25/1/2 26/1/2 27/1/2
f 27/1/2 26/1/2 28/1/2
f 29/2/2 30/2/2 31/2/2
f 31/2/2 30/2/2 32/2/2
f 35/2/3 34/2/3 33/2/3
f 36/2/3 34/2/3 35/2/3
f 39/1/3 38/1/3 37/1/3
f 40/1/3 38/1/3 39/1/3
f 43/2/3 42/2/3 41/2/3
f 44/2/3 42/2/3 43/2/3
f 47/1/3 46/1/3 45/1/3
f 48/1/3 46/1/3 47/1/3
f 49/1/4 50/1/4 51/1/4
f 51/1/4 50/1/4 52/1/4
f 53/2/4 54/2/4 55/2/4
f 55/2/4 54/2/4 56/2/4
f 57/1/4 58/1/4 59/1/4
f 59/1/4 58/1/4 60/1/4
f 61/2/4 62/2/4 63/2/4
f 63/2/4 62/2/4 64/2/4
f 67/2/5 66/2/5 65/2/5
f 68/2/5 66/2/5 67/2/5
f 69/2/5 67/2/5 65/2/5
f 70/2/5 66/2/5 68/2/5
f 71/2/5 69/2/5 65/2/5
f 71/2/5 70/2/5 69/2/5
f 72/2/5 66/2/5 70/2/5
f 72/2/5 70/2/5 71/2/5
f 73/2/6 74/2/6 75/2/6
f 75/2/6 74/2/6 76/2/6
f 77/2/6 78/2/6 79/2/6
f 79/2/6 78/2/6 80/2/6
f 77/2/6 79/2/6 81/2/6
f 80/2/6 78/2/6 82/2/6
f 77/2/6 81/2/6 83/2/6
f 81/2/6 82/2/6 83/2/6
f 82/2/6 78/2/6 84/2/6
f 83/2/6 82/2/6 84/2/6
f 73/2/6 75/2/6 85/2/6
f 76/2/6 74/2/6 86/2/6
f 73/2/6 85/2/6 87/2/6
f 85/2/6 86/2/6 87/2/6
f 86/2/6 74/2/6 88/2/6
f 87/2/6 86/2/6 88/2/6
f 89/1/6 90/1/6 91/1/6
f 91/1/6 90/1/6 92/1/6
f 89/1/6 91/1/6 93/1/6
f 92/1/6 90/1/6 94/1/6
f 89/1/6 93/1/6 95/1/6
f 93/1/6 94/1/6 95/1/6
f 94/1/6 90/1/6 96/1/6
f 95/1/6 94/1/6 96/1/6
