# MagicaVoxel @ Ephtracy

# group
o 

# material
mtllib logo.mtl
usemtl palette

# normals
vn -1 0 0
vn 1 0 0
vn 0 0 1
vn 0 0 -1
vn 0 -1 0
vn 0 1 0

# texcoords
vt 0.986328 0.5
vt 0.990234 0.5

# verts
v 4.7 3.7 0
v 4.7 3.7 -0.1
v 4.7 3.7 -0.2
v 4.7 5.4 0
v 4.7 5.4 -0.1
v 4.7 5.4 -0.2
v 5.6 3.7 0
v 5.6 3.7 -0.1
v 5.6 3.7 -0.2
v 5.6 4.8 0
v 5.6 4.8 -0.1
v 5.6 4.8 -0.2
v 6 3.7 0
v 6 3.7 -0.1
v 6 3.7 -0.2
v 6 4.1 0
v 6 4.1 -0.1
v 6 4.1 -0.2
v 6 4.2 0
v 6 4.2 -0.1
v 6 4.2 -0.2
v 6 4.7 0
v 6 4.7 -0.1
v 6 4.7 -0.2
v 6.3 3.5 0
v 6.3 3.5 -0.1
v 6.3 3.5 -0.2
v 6.3 5.1 0
v 6.3 5.1 -0.1
v 6.3 5.1 -0.2
v 6.5 4.2 0
v 6.5 4.2 -0.1
v 6.5 4.2 -0.2
v 6.5 4.4 0
v 6.5 4.4 -0.1
v 6.5 4.4 -0.2
v 6.6 4.1 0
v 6.6 4.1 -0.1
v 6.6 4.1 -0.2
v 6.6 4.2 0
v 6.6 4.2 -0.1
v 6.6 4.2 -0.2
v 6.7 3.9 0
v 6.7 3.9 -0.1
v 6.7 3.9 -0.2
v 6.7 4.1 0
v 6.7 4.1 -0.1
v 6.7 4.1 -0.2
v 6.7 4.6 0
v 6.7 4.6 -0.1
v 6.7 4.6 -0.2
v 6.7 5 0
v 6.7 5 -0.1
v 6.7 5 -0.2
v 6.8 3.7 0
v 6.8 3.7 -0.1
v 6.8 3.7 -0.2
v 6.8 3.9 0
v 6.8 3.9 -0.1
v 6.8 3.9 -0.2
v 6.9 3.6 0
v 6.9 3.6 -0.1
v 6.9 3.6 -0.2
v 6.9 3.7 0
v 6.9 3.7 -0.1
v 6.9 3.7 -0.2
v 7.1 3.6 0
v 7.1 3.6 -0.1
v 7.1 3.6 -0.2
v 7.1 4.5 0
v 7.1 4.5 -0.1
v 7.1 4.5 -0.2
v 7.3 4.1 0
v 7.3 4.1 -0.1
v 7.3 4.1 -0.2
v 7.3 4.2 0
v 7.3 4.2 -0.1
v 7.3 4.2 -0.2
v 7.6 3.7 0
v 7.6 3.7 -0.1
v 7.6 3.7 -0.2
v 7.6 4.1 0
v 7.6 4.1 -0.1
v 7.6 4.1 -0.2
v 7.9 3.5 0
v 7.9 3.5 -0.1
v 7.9 3.5 -0.2
v 7.9 5 0
v 7.9 5 -0.1
v 7.9 5 -0.2
v 8.5 3.6 0
v 8.5 3.6 -0.1
v 8.5 3.6 -0.2
v 8.5 4.9 0
v 8.5 4.9 -0.1
v 8.5 4.9 -0.2
v 4.8 3.8 0
v 4.8 3.8 -0.1
v 4.8 3.8 -0.2
v 4.8 5.3 0
v 4.8 5.3 -0.1
v 4.8 5.3 -0.2
v 5.5 3.7 0
v 5.5 3.7 -0.1
v 5.5 3.7 -0.2
v 5.5 3.8 0
v 5.5 3.8 -0.1
v 5.5 3.8 -0.2
v 5.6 5.3 0
v 5.6 5.3 -0.1
v 5.6 5.3 -0.2
v 5.6 5.4 0
v 5.6 5.4 -0.1
v 5.6 5.4 -0.2
v 5.7 3.7 0
v 5.7 3.7 -0.1
v 5.7 3.7 -0.2
v 5.7 4.1 0
v 5.7 4.1 -0.1
v 5.7 4.1 -0.2
v 5.7 4.2 0
v 5.7 4.2 -0.1
v 5.7 4.2 -0.2
v 5.7 4.7 0
v 5.7 4.7 -0.1
v 5.7 4.7 -0.2
v 6.1 3.7 0
v 6.1 3.7 -0.1
v 6.1 3.7 -0.2
v 6.1 4.8 0
v 6.1 4.8 -0.1
v 6.1 4.8 -0.2
v 6.4 3.5 0
v 6.4 3.5 -0.1
v 6.4 3.5 -0.2
v 6.4 4.4 0
v 6.4 4.4 -0.1
v 6.4 4.4 -0.2
v 6.4 4.6 0
v 6.4 4.6 -0.1
v 6.4 4.6 -0.2
v 6.4 5 0
v 6.4 5 -0.1
v 6.4 5 -0.2
v 6.5 4.4 0
v 6.5 4.4 -0.1
v 6.5 4.4 -0.2
v 6.5 4.5 0
v 6.5 4.5 -0.1
v 6.5 4.5 -0.2
v 6.6 4.2 0
v 6.6 4.2 -0.1
v 6.6 4.2 -0.2
v 6.6 4.4 0
v 6.6 4.4 -0.1
v 6.6 4.4 -0.2
v 6.7 4.1 0
v 6.7 4.1 -0.1
v 6.7 4.1 -0.2
v 6.7 4.2 0
v 6.7 4.2 -0.1
v 6.7 4.2 -0.2
v 6.8 3.9 0
v 6.8 3.9 -0.1
v 6.8 3.9 -0.2
v 6.8 4.1 0
v 6.8 4.1 -0.1
v 6.8 4.1 -0.2
v 6.8 4.5 0
v 6.8 4.5 -0.1
v 6.8 4.5 -0.2
v 6.8 5.1 0
v 6.8 5.1 -0.1
v 6.8 5.1 -0.2
v 6.9 3.7 0
v 6.9 3.7 -0.1
v 6.9 3.7 -0.2
v 6.9 3.9 0
v 6.9 3.9 -0.1
v 6.9 3.9 -0.2
v 7 3.6 0
v 7 3.6 -0.1
v 7 3.6 -0.2
v 7 3.7 0
v 7 3.7 -0.1
v 7 3.7 -0.2
v 7.2 3.7 0
v 7.2 3.7 -0.1
v 7.2 3.7 -0.2
v 7.2 4.4 0
v 7.2 4.4 -0.1
v 7.2 4.4 -0.2
v 7.6 4.4 0
v 7.6 4.4 -0.1
v 7.6 4.4 -0.2
v 7.6 4.5 0
v 7.6 4.5 -0.1
v 7.6 4.5 -0.2
v 7.7 3.6 0
v 7.7 3.6 -0.1
v 7.7 3.6 -0.2
v 7.7 4.2 0
v 7.7 4.2 -0.1
v 7.7 4.2 -0.2
v 8 3.6 0
v 8 3.6 -0.1
v 8 3.6 -0.2
v 8 4.9 0
v 8 4.9 -0.1
v 8 4.9 -0.2
v 8.6 3.5 0
v 8.6 3.5 -0.1
v 8.6 3.5 -0.2
v 8.6 5 0
v 8.6 5 -0.1
v 8.6 5 -0.2
v 4.7 3.7 0
v 4.7 5.4 0
v 4.8 3.8 0
v 4.8 5.3 0
v 5.5 3.7 0
v 5.5 3.8 0
v 5.6 3.7 0
v 5.6 4.8 0
v 5.6 5.3 0
v 5.6 5.4 0
v 5.7 3.7 0
v 5.7 4.1 0
v 5.7 4.2 0
v 5.7 4.7 0
v 6 3.7 0
v 6 4.1 0
v 6 4.2 0
v 6 4.7 0
v 6.1 3.7 0
v 6.1 4.8 0
v 6.3 3.5 0
v 6.3 5.1 0
v 6.4 3.5 0
v 6.4 4.4 0
v 6.4 4.6 0
v 6.4 5 0
v 6.5 4.2 0
v 6.5 4.4 0
v 6.5 4.5 0
v 6.6 4.1 0
v 6.6 4.2 0
v 6.6 4.4 0
v 6.7 3.9 0
v 6.7 4.1 0
v 6.7 4.2 0
v 6.7 4.6 0
v 6.7 5 0
v 6.8 3.7 0
v 6.8 3.9 0
v 6.8 4.1 0
v 6.8 4.5 0
v 6.8 5.1 0
v 6.9 3.6 0
v 6.9 3.7 0
v 6.9 3.9 0
v 7 3.6 0
v 7 3.7 0
v 7.1 3.6 0
v 7.1 4.5 0
v 7.2 3.7 0
v 7.2 4.4 0
v 7.3 4.1 0
v 7.3 4.2 0
v 7.6 3.7 0
v 7.6 4.1 0
v 7.6 4.4 0
v 7.6 4.5 0
v 7.7 3.6 0
v 7.7 4.2 0
v 7.9 3.5 0
v 7.9 5 0
v 8 3.6 0
v 8 4.9 0
v 8.5 3.6 0
v 8.5 4.9 0
v 8.6 3.5 0
v 8.6 5 0
v 4.7 3.7 -0.2
v 4.7 5.4 -0.2
v 4.8 3.8 -0.2
v 4.8 5.3 -0.2
v 5.5 3.7 -0.2
v 5.5 3.8 -0.2
v 5.6 3.7 -0.2
v 5.6 4.8 -0.2
v 5.6 5.3 -0.2
v 5.6 5.4 -0.2
v 5.7 3.7 -0.2
v 5.7 4.1 -0.2
v 5.7 4.2 -0.2
v 5.7 4.7 -0.2
v 6 3.7 -0.2
v 6 4.1 -0.2
v 6 4.2 -0.2
v 6 4.7 -0.2
v 6.1 3.7 -0.2
v 6.1 4.8 -0.2
v 6.3 3.5 -0.2
v 6.3 5.1 -0.2
v 6.4 3.5 -0.2
v 6.4 4.4 -0.2
v 6.4 4.6 -0.2
v 6.4 5 -0.2
v 6.5 4.2 -0.2
v 6.5 4.4 -0.2
v 6.5 4.5 -0.2
v 6.6 4.1 -0.2
v 6.6 4.2 -0.2
v 6.6 4.4 -0.2
v 6.7 3.9 -0.2
v 6.7 4.1 -0.2
v 6.7 4.2 -0.2
v 6.7 4.6 -0.2
v 6.7 5 -0.2
v 6.8 3.7 -0.2
v 6.8 3.9 -0.2
v 6.8 4.1 -0.2
v 6.8 4.5 -0.2
v 6.8 5.1 -0.2
v 6.9 3.6 -0.2
v 6.9 3.7 -0.2
v 6.9 3.9 -0.2
v 7 3.6 -0.2
v 7 3.7 -0.2
v 7.1 3.6 -0.2
v 7.1 4.5 -0.2
v 7.2 3.7 -0.2
v 7.2 4.4 -0.2
v 7.3 4.1 -0.2
v 7.3 4.2 -0.2
v 7.6 3.7 -0.2
v 7.6 4.1 -0.2
v 7.6 4.4 -0.2
v 7.6 4.5 -0.2
v 7.7 3.6 -0.2
v 7.7 4.2 -0.2
v 7.9 3.5 -0.2
v 7.9 5 -0.2
v 8 3.6 -0.2
v 8 4.9 -0.2
v 8.5 3.6 -0.2
v 8.5 4.9 -0.2
v 8.6 3.5 -0.2
v 8.6 5 -0.2
v 6.3 3.5 0
v 6.4 3.5 0
v 7.9 3.5 0
v 8.6 3.5 0
v 6.3 3.5 -0.1
v 6.4 3.5 -0.1
v 7.9 3.5 -0.1
v 8.6 3.5 -0.1
v 6.3 3.5 -0.2
v 6.4 3.5 -0.2
v 7.9 3.5 -0.2
v 8.6 3.5 -0.2
v 6.9 3.6 0
v 7 3.6 0
v 7.1 3.6 0
v 7.7 3.6 0
v 6.9 3.6 -0.1
v 7 3.6 -0.1
v 7.1 3.6 -0.1
v 7.7 3.6 -0.1
v 6.9 3.6 -0.2
v 7 3.6 -0.2
v 7.1 3.6 -0.2
v 7.7 3.6 -0.2
v 4.7 3.7 0
v 5.5 3.7 0
v 5.6 3.7 0
v 5.7 3.7 0
v 6 3.7 0
v 6.1 3.7 0
v 6.8 3.7 0
v 6.9 3.7 0
v 4.7 3.7 -0.1
v 5.5 3.7 -0.1
v 5.6 3.7 -0.1
v 5.7 3.7 -0.1
v 6 3.7 -0.1
v 6.1 3.7 -0.1
v 6.8 3.7 -0.1
v 6.9 3.7 -0.1
v 4.7 3.7 -0.2
v 5.5 3.7 -0.2
v 5.6 3.7 -0.2
v 5.7 3.7 -0.2
v 6 3.7 -0.2
v 6.1 3.7 -0.2
v 6.8 3.7 -0.2
v 6.9 3.7 -0.2
v 6.7 3.9 0
v 6.8 3.9 0
v 6.7 3.9 -0.1
v 6.8 3.9 -0.1
v 6.7 3.9 -0.2
v 6.8 3.9 -0.2
v 5.7 4.1 0
v 6 4.1 0
v 6.6 4.1 0
v 6.7 4.1 0
v 7.3 4.1 0
v 7.6 4.1 0
v 5.7 4.1 -0.1
v 6 4.1 -0.1
v 6.6 4.1 -0.1
v 6.7 4.1 -0.1
v 7.3 4.1 -0.1
v 7.6 4.1 -0.1
v 5.7 4.1 -0.2
v 6 4.1 -0.2
v 6.6 4.1 -0.2
v 6.7 4.1 -0.2
v 7.3 4.1 -0.2
v 7.6 4.1 -0.2
v 6.5 4.2 0
v 6.6 4.2 0
v 6.5 4.2 -0.1
v 6.6 4.2 -0.1
v 6.5 4.2 -0.2
v 6.6 4.2 -0.2
v 6.4 4.4 0
v 6.5 4.4 0
v 7.2 4.4 0
v 7.6 4.4 0
v 6.4 4.4 -0.1
v 6.5 4.4 -0.1
v 7.2 4.4 -0.1
v 7.6 4.4 -0.1
v 6.4 4.4 -0.2
v 6.5 4.4 -0.2
v 7.2 4.4 -0.2
v 7.6 4.4 -0.2
v 6.5 4.5 0
v 6.8 4.5 0
v 6.5 4.5 -0.1
v 6.8 4.5 -0.1
v 6.5 4.5 -0.2
v 6.8 4.5 -0.2
v 5.7 4.7 0
v 6 4.7 0
v 5.7 4.7 -0.1
v 6 4.7 -0.1
v 5.7 4.7 -0.2
v 6 4.7 -0.2
v 8 4.9 0
v 8.5 4.9 0
v 8 4.9 -0.1
v 8.5 4.9 -0.1
v 8 4.9 -0.2
v 8.5 4.9 -0.2
v 6.4 5 0
v 6.7 5 0
v 6.4 5 -0.1
v 6.7 5 -0.1
v 6.4 5 -0.2
v 6.7 5 -0.2
v 4.8 5.3 0
v 5.6 5.3 0
v 4.8 5.3 -0.1
v 5.6 5.3 -0.1
v 4.8 5.3 -0.2
v 5.6 5.3 -0.2
v 8 3.6 0
v 8.5 3.6 0
v 8 3.6 -0.1
v 8.5 3.6 -0.1
v 8 3.6 -0.2
v 8.5 3.6 -0.2
v 6.9 3.7 0
v 7 3.7 0
v 7.2 3.7 0
v 7.6 3.7 0
v 6.9 3.7 -0.1
v 7 3.7 -0.1
v 7.2 3.7 -0.1
v 7.6 3.7 -0.1
v 6.9 3.7 -0.2
v 7 3.7 -0.2
v 7.2 3.7 -0.2
v 7.6 3.7 -0.2
v 4.8 3.8 0
v 5.5 3.8 0
v 4.8 3.8 -0.1
v 5.5 3.8 -0.1
v 4.8 3.8 -0.2
v 5.5 3.8 -0.2
v 6.8 3.9 0
v 6.9 3.9 0
v 6.8 3.9 -0.1
v 6.9 3.9 -0.1
v 6.8 3.9 -0.2
v 6.9 3.9 -0.2
v 6.7 4.1 0
v 6.8 4.1 0
v 6.7 4.1 -0.1
v 6.8 4.1 -0.1
v 6.7 4.1 -0.2
v 6.8 4.1 -0.2
v 5.7 4.2 0
v 6 4.2 0
v 6.6 4.2 0
v 6.7 4.2 0
v 7.3 4.2 0
v 7.7 4.2 0
v 5.7 4.2 -0.1
v 6 4.2 -0.1
v 6.6 4.2 -0.1
v 6.7 4.2 -0.1
v 7.3 4.2 -0.1
v 7.7 4.2 -0.1
v 5.7 4.2 -0.2
v 6 4.2 -0.2
v 6.6 4.2 -0.2
v 6.7 4.2 -0.2
v 7.3 4.2 -0.2
v 7.7 4.2 -0.2
v 6.5 4.4 0
v 6.6 4.4 0
v 6.5 4.4 -0.1
v 6.6 4.4 -0.1
v 6.5 4.4 -0.2
v 6.6 4.4 -0.2
v 7.1 4.5 0
v 7.6 4.5 0
v 7.1 4.5 -0.1
v 7.6 4.5 -0.1
v 7.1 4.5 -0.2
v 7.6 4.5 -0.2
v 6.4 4.6 0
v 6.7 4.6 0
v 6.4 4.6 -0.1
v 6.7 4.6 -0.1
v 6.4 4.6 -0.2
v 6.7 4.6 -0.2
v 5.6 4.8 0
v 6.1 4.8 0
v 5.6 4.8 -0.1
v 6.1 4.8 -0.1
v 5.6 4.8 -0.2
v 6.1 4.8 -0.2
v 7.9 5 0
v 8.6 5 0
v 7.9 5 -0.1
v 8.6 5 -0.1
v 7.9 5 -0.2
v 8.6 5 -0.2
v 6.3 5.1 0
v 6.8 5.1 0
v 6.3 5.1 -0.1
v 6.8 5.1 -0.1
v 6.3 5.1 -0.2
v 6.8 5.1 -0.2
v 4.7 5.4 0
v 5.6 5.4 0
v 4.7 5.4 -0.1
v 5.6 5.4 -0.1
v 4.7 5.4 -0.2
v 5.6 5.4 -0.2

# faces
f 4/1/1 2/1/1 1/1/1
f 5/2/1 3/2/1 2/2/1
f 5/1/1 2/1/1 4/1/1
f 6/2/1 3/2/1 5/2/1
f 10/1/1 8/1/1 7/1/1
f 11/2/1 9/2/1 8/2/1
f 11/1/1 8/1/1 10/1/1
f 12/2/1 9/2/1 11/2/1
f 16/1/1 14/1/1 13/1/1
f 17/2/1 15/2/1 14/2/1
f 17/1/1 14/1/1 16/1/1
f 18/2/1 15/2/1 17/2/1
f 22/1/1 20/1/1 19/1/1
f 23/2/1 21/2/1 20/2/1
f 23/1/1 20/1/1 22/1/1
f 24/2/1 21/2/1 23/2/1
f 28/1/1 26/1/1 25/1/1
f 29/2/1 27/2/1 26/2/1
f 29/1/1 26/1/1 28/1/1
f 30/2/1 27/2/1 29/2/1
f 34/1/1 32/1/1 31/1/1
f 35/2/1 33/2/1 32/2/1
f 35/1/1 32/1/1 34/1/1
f 36/2/1 33/2/1 35/2/1
f 40/1/1 38/1/1 37/1/1
f 41/2/1 39/2/1 38/2/1
f 41/1/1 38/1/1 40/1/1
f 42/2/1 39/2/1 41/2/1
f 46/1/1 44/1/1 43/1/1
f 47/2/1 45/2/1 44/2/1
f 47/1/1 44/1/1 46/1/1
f 48/2/1 45/2/1 47/2/1
f 52/1/1 50/1/1 49/1/1
f 53/2/1 51/2/1 50/2/1
f 53/1/1 50/1/1 52/1/1
f 54/2/1 51/2/1 53/2/1
f 58/1/1 56/1/1 55/1/1
f 59/2/1 57/2/1 56/2/1
f 59/1/1 56/1/1 58/1/1
f 60/2/1 57/2/1 59/2/1
f 64/1/1 62/1/1 61/1/1
f 65/2/1 63/2/1 62/2/1
f 65/1/1 62/1/1 64/1/1
f 66/2/1 63/2/1 65/2/1
f 70/1/1 68/1/1 67/1/1
f 71/2/1 69/2/1 68/2/1
f 71/1/1 68/1/1 70/1/1
f 72/2/1 69/2/1 71/2/1
f 76/1/1 74/1/1 73/1/1
f 77/2/1 75/2/1 74/2/1
f 77/1/1 74/1/1 76/1/1
f 78/2/1 75/2/1 77/2/1
f 82/1/1 80/1/1 79/1/1
f 83/2/1 81/2/1 80/2/1
f 83/1/1 80/1/1 82/1/1
f 84/2/1 81/2/1 83/2/1
f 88/1/1 86/1/1 85/1/1
f 89/2/1 87/2/1 86/2/1
f 89/1/1 86/1/1 88/1/1
f 90/2/1 87/2/1 89/2/1
f 94/1/1 92/1/1 91/1/1
f 95/2/1 93/2/1 92/2/1
f 95/1/1 92/1/1 94/1/1
f 96/2/1 93/2/1 95/2/1
f 97/1/2 98/1/2 100/1/2
f 98/2/2 99/2/2 101/2/2
f 100/1/2 98/1/2 101/1/2
f 101/2/2 99/2/2 102/2/2
f 103/1/2 104/1/2 106/1/2
f 104/2/2 105/2/2 107/2/2
f 106/1/2 104/1/2 107/1/2
f 107/2/2 105/2/2 108/2/2
f 109/1/2 110/1/2 112/1/2
f 110/2/2 111/2/2 113/2/2
f 112/1/2 110/1/2 113/1/2
f 113/2/2 111/2/2 114/2/2
f 115/1/2 116/1/2 118/1/2
f 116/2/2 117/2/2 119/2/2
f 118/1/2 116/1/2 119/1/2
f 119/2/2 117/2/2 120/2/2
f 121/1/2 122/1/2 124/1/2
f 122/2/2 123/2/2 125/2/2
f 124/1/2 122/1/2 125/1/2
f 125/2/2 123/2/2 126/2/2
f 127/1/2 128/1/2 130/1/2
f 128/2/2 129/2/2 131/2/2
f 130/1/2 128/1/2 131/1/2
f 131/2/2 129/2/2 132/2/2
f 133/1/2 134/1/2 136/1/2
f 134/2/2 135/2/2 137/2/2
f 136/1/2 134/1/2 137/1/2
f 137/2/2 135/2/2 138/2/2
f 139/1/2 140/1/2 142/1/2
f 140/2/2 141/2/2 143/2/2
f 142/1/2 140/1/2 143/1/2
f 143/2/2 141/2/2 144/2/2
f 145/1/2 146/1/2 148/1/2
f 146/2/2 147/2/2 149/2/2
f 148/1/2 146/1/2 149/1/2
f 149/2/2 147/2/2 150/2/2
f 151/1/2 152/1/2 154/1/2
f 152/2/2 153/2/2 155/2/2
f 154/1/2 152/1/2 155/1/2
f 155/2/2 153/2/2 156/2/2
f 157/1/2 158/1/2 160/1/2
f 158/2/2 159/2/2 161/2/2
f 160/1/2 158/1/2 161/1/2
f 161/2/2 159/2/2 162/2/2
f 163/1/2 164/1/2 166/1/2
f 164/2/2 165/2/2 167/2/2
f 166/1/2 164/1/2 167/1/2
f 167/2/2 165/2/2 168/2/2
f 169/1/2 170/1/2 172/1/2
f 170/2/2 171/2/2 173/2/2
f 172/1/2 170/1/2 173/1/2
f 173/2/2 171/2/2 174/2/2
f 175/1/2 176/1/2 178/1/2
f 176/2/2 177/2/2 179/2/2
f 178/1/2 176/1/2 179/1/2
f 179/2/2 177/2/2 180/2/2
f 181/1/2 182/1/2 184/1/2
f 182/2/2 183/2/2 185/2/2
f 184/1/2 182/1/2 185/1/2
f 185/2/2 183/2/2 186/2/2
f 187/1/2 188/1/2 190/1/2
f 188/2/2 189/2/2 191/2/2
f 190/1/2 188/1/2 191/1/2
f 191/2/2 189/2/2 192/2/2
f 193/1/2 194/1/2 196/1/2
f 194/2/2 195/2/2 197/2/2
f 196/1/2 194/1/2 197/1/2
f 197/2/2 195/2/2 198/2/2
f 199/1/2 200/1/2 202/1/2
f 200/2/2 201/2/2 203/2/2
f 202/1/2 200/1/2 203/1/2
f 203/2/2 201/2/2 204/2/2
f 205/1/2 206/1/2 208/1/2
f 206/2/2 207/2/2 209/2/2
f 208/1/2 206/1/2 209/1/2
f 209/2/2 207/2/2 210/2/2
f 211/1/2 212/1/2 214/1/2
f 212/2/2 213/2/2 215/2/2
f 214/1/2 212/1/2 215/1/2
f 215/2/2 213/2/2 216/2/2
f 219/1/3 218/1/3 217/1/3
f 220/1/3 218/1/3 219/1/3
f 221/1/3 219/1/3 217/1/3
f 222/1/3 219/1/3 221/1/3
f 225/1/3 218/1/3 220/1/3
f 226/1/3 218/1/3 225/1/3
f 227/1/3 224/1/3 223/1/3
f 228/1/3 224/1/3 227/1/3
f 229/1/3 224/1/3 228/1/3
f 230/1/3 224/1/3 229/1/3
f 232/1/3 229/1/3 228/1/3
f 233/1/3 229/1/3 232/1/3
f 234/1/3 224/1/3 230/1/3
f 235/1/3 233/1/3 232/1/3
f 235/1/3 234/1/3 233/1/3
f 235/1/3 232/1/3 231/1/3
f 236/1/3 224/1/3 234/1/3
f 236/1/3 234/1/3 235/1/3
f 239/1/3 238/1/3 237/1/3
f 240/1/3 238/1/3 239/1/3
f 241/1/3 238/1/3 240/1/3
f 242/1/3 238/1/3 241/1/3
f 244/1/3 241/1/3 240/1/3
f 245/1/3 241/1/3 244/1/3
f 247/1/3 244/1/3 243/1/3
f 248/1/3 244/1/3 247/1/3
f 250/1/3 247/1/3 246/1/3
f 251/1/3 247/1/3 250/1/3
f 252/1/3 241/1/3 245/1/3
f 253/1/3 238/1/3 242/1/3
f 255/1/3 250/1/3 249/1/3
f 256/1/3 250/1/3 255/1/3
f 257/1/3 252/1/3 245/1/3
f 257/1/3 253/1/3 252/1/3
f 258/1/3 238/1/3 253/1/3
f 258/1/3 253/1/3 257/1/3
f 260/1/3 255/1/3 254/1/3
f 261/1/3 255/1/3 260/1/3
f 262/1/3 260/1/3 259/1/3
f 263/1/3 260/1/3 262/1/3
f 266/1/3 265/1/3 264/1/3
f 267/1/3 265/1/3 266/1/3
f 270/1/3 266/1/3 264/1/3
f 271/1/3 269/1/3 268/1/3
f 272/1/3 265/1/3 267/1/3
f 273/1/3 265/1/3 272/1/3
f 274/1/3 270/1/3 264/1/3
f 274/1/3 271/1/3 270/1/3
f 275/1/3 269/1/3 271/1/3
f 275/1/3 271/1/3 274/1/3
f 278/1/3 277/1/3 276/1/3
f 279/1/3 277/1/3 278/1/3
f 280/1/3 278/1/3 276/1/3
f 281/1/3 277/1/3 279/1/3
f 282/1/3 280/1/3 276/1/3
f 282/1/3 281/1/3 280/1/3
f 283/1/3 277/1/3 281/1/3
f 283/1/3 281/1/3 282/1/3
f 284/2/4 285/2/4 286/2/4
f 286/2/4 285/2/4 287/2/4
f 284/2/4 286/2/4 288/2/4
f 288/2/4 286/2/4 289/2/4
f 287/2/4 285/2/4 292/2/4
f 292/2/4 285/2/4 293/2/4
f 290/2/4 291/2/4 294/2/4
f 294/2/4 291/2/4 295/2/4
f 295/2/4 291/2/4 296/2/4
f 296/2/4 291/2/4 297/2/4
f 295/2/4 296/2/4 299/2/4
f 299/2/4 296/2/4 300/2/4
f 297/2/4 291/2/4 301/2/4
f 299/2/4 300/2/4 302/2/4
f 300/2/4 301/2/4 302/2/4
f 298/2/4 299/2/4 302/2/4
f 301/2/4 291/2/4 303/2/4
f 302/2/4 301/2/4 303/2/4
f 304/2/4 305/2/4 306/2/4
f 306/2/4 305/2/4 307/2/4
f 307/2/4 305/2/4 308/2/4
f 308/2/4 305/2/4 309/2/4
f 307/2/4 308/2/4 311/2/4
f 311/2/4 308/2/4 312/2/4
f 310/2/4 311/2/4 314/2/4
f 314/2/4 311/2/4 315/2/4
f 313/2/4 314/2/4 317/2/4
f 317/2/4 314/2/4 318/2/4
f 312/2/4 308/2/4 319/2/4
f 309/2/4 305/2/4 320/2/4
f 316/2/4 317/2/4 322/2/4
f 322/2/4 317/2/4 323/2/4
f 312/2/4 319/2/4 324/2/4
f 319/2/4 320/2/4 324/2/4
f 320/2/4 305/2/4 325/2/4
f 324/2/4 320/2/4 325/2/4
f 321/2/4 322/2/4 327/2/4
f 327/2/4 322/2/4 328/2/4
f 326/2/4 327/2/4 329/2/4
f 329/2/4 327/2/4 330/2/4
f 331/2/4 332/2/4 333/2/4
f 333/2/4 332/2/4 334/2/4
f 331/2/4 333/2/4 337/2/4
f 335/2/4 336/2/4 338/2/4
f 334/2/4 332/2/4 339/2/4
f 339/2/4 332/2/4 340/2/4
f 331/2/4 337/2/4 341/2/4
f 337/2/4 338/2/4 341/2/4
f 338/2/4 336/2/4 342/2/4
f 341/2/4 338/2/4 342/2/4
f 343/2/4 344/2/4 345/2/4
f 345/2/4 344/2/4 346/2/4
f 343/2/4 345/2/4 347/2/4
f 346/2/4 344/2/4 348/2/4
f 343/2/4 347/2/4 349/2/4
f 347/2/4 348/2/4 349/2/4
f 348/2/4 344/2/4 350/2/4
f 349/2/4 348/2/4 350/2/4
f 355/1/5 352/1/5 351/1/5
f 356/1/5 352/1/5 355/1/5
f 357/1/5 354/1/5 353/1/5
f 358/1/5 354/1/5 357/1/5
f 359/2/5 356/2/5 355/2/5
f 360/2/5 356/2/5 359/2/5
f 361/2/5 358/2/5 357/2/5
f 362/2/5 358/2/5 361/2/5
f 367/1/5 364/1/5 363/1/5
f 368/1/5 364/1/5 367/1/5
f 369/1/5 366/1/5 365/1/5
f 370/1/5 366/1/5 369/1/5
f 371/2/5 368/2/5 367/2/5
f 372/2/5 368/2/5 371/2/5
f 373/2/5 370/2/5 369/2/5
f 374/2/5 370/2/5 373/2/5
f 383/1/5 376/1/5 375/1/5
f 384/1/5 376/1/5 383/1/5
f 385/1/5 378/1/5 377/1/5
f 386/1/5 378/1/5 385/1/5
f 387/1/5 380/1/5 379/1/5
f 388/1/5 380/1/5 387/1/5
f 389/1/5 382/1/5 381/1/5
f 390/1/5 382/1/5 389/1/5
f 391/2/5 384/2/5 383/2/5
f 392/2/5 384/2/5 391/2/5
f 393/2/5 386/2/5 385/2/5
f 394/2/5 386/2/5 393/2/5
f 395/2/5 388/2/5 387/2/5
f 396/2/5 388/2/5 395/2/5
f 397/2/5 390/2/5 389/2/5
f 398/2/5 390/2/5 397/2/5
f 401/1/5 400/1/5 399/1/5
f 402/1/5 400/1/5 401/1/5
f 403/2/5 402/2/5 401/2/5
f 404/2/5 402/2/5 403/2/5
f 411/1/5 406/1/5 405/1/5
f 412/1/5 406/1/5 411/1/5
f 413/1/5 408/1/5 407/1/5
f 414/1/5 408/1/5 413/1/5
f 415/1/5 410/1/5 409/1/5
f 416/1/5 410/1/5 415/1/5
f 417/2/5 412/2/5 411/2/5
f 418/2/5 412/2/5 417/2/5
f 419/2/5 414/2/5 413/2/5
f 420/2/5 414/2/5 419/2/5
f 421/2/5 416/2/5 415/2/5
f 422/2/5 416/2/5 421/2/5
f 425/1/5 424/1/5 423/1/5
f 426/1/5 424/1/5 425/1/5
f 427/2/5 426/2/5 425/2/5
f 428/2/5 426/2/5 427/2/5
f 433/1/5 430/1/5 429/1/5
f 434/1/5 430/1/5 433/1/5
f 435/1/5 432/1/5 431/1/5
f 436/1/5 432/1/5 435/1/5
f 437/2/5 434/2/5 433/2/5
f 438/2/5 434/2/5 437/2/5
f 439/2/5 436/2/5 435/2/5
f 440/2/5 436/2/5 439/2/5
f 443/1/5 442/1/5 441/1/5
f 444/1/5 442/1/5 443/1/5
f 445/2/5 444/2/5 443/2/5
f 446/2/5 444/2/5 445/2/5
f 449/1/5 448/1/5 447/1/5
f 450/1/5 448/1/5 449/1/5
f 451/2/5 450/2/5 449/2/5
f 452/2/5 450/2/5 451/2/5
f 455/1/5 454/1/5 453/1/5
f 456/1/5 454/1/5 455/1/5
f 457/2/5 456/2/5 455/2/5
f 458/2/5 456/2/5 457/2/5
f 461/1/5 460/1/5 459/1/5
f 462/1/5 460/1/5 461/1/5
f 463/2/5 462/2/5 461/2/5
f 464/2/5 462/2/5 463/2/5
f 467/1/5 466/1/5 465/1/5
f 468/1/5 466/1/5 467/1/5
f 469/2/5 468/2/5 467/2/5
f 470/2/5 468/2/5 469/2/5
f 471/1/6 472/1/6 473/1/6
f 473/1/6 472/1/6 474/1/6
f 473/2/6 474/2/6 475/2/6
f 475/2/6 474/2/6 476/2/6
f 477/1/6 478/1/6 481/1/6
f 481/1/6 478/1/6 482/1/6
f 479/1/6 480/1/6 483/1/6
f 483/1/6 480/1/6 484/1/6
f 481/2/6 482/2/6 485/2/6
f 485/2/6 482/2/6 486/2/6
f 483/2/6 484/2/6 487/2/6
f 487/2/6 484/2/6 488/2/6
f 489/1/6 490/1/6 491/1/6
f 491/1/6 490/1/6 492/1/6
f 491/2/6 492/2/6 493/2/6
f 493/2/6 492/2/6 494/2/6
f 495/1/6 496/1/6 497/1/6
f 497/1/6 496/1/6 498/1/6
f 497/2/6 498/2/6 499/2/6
f 499/2/6 498/2/6 500/2/6
f 501/1/6 502/1/6 503/1/6
f 503/1/6 502/1/6 504/1/6
f 503/2/6 504/2/6 505/2/6
f 505/2/6 504/2/6 506/2/6
f 507/1/6 508/1/6 513/1/6
f 513/1/6 508/1/6 514/1/6
f 509/1/6 510/1/6 515/1/6
f 515/1/6 510/1/6 516/1/6
f 511/1/6 512/1/6 517/1/6
f 517/1/6 512/1/6 518/1/6
f 513/2/6 514/2/6 519/2/6
f 519/2/6 514/2/6 520/2/6
f 515/2/6 516/2/6 521/2/6
f 521/2/6 516/2/6 522/2/6
f 517/2/6 518/2/6 523/2/6
f 523/2/6 518/2/6 524/2/6
f 525/1/6 526/1/6 527/1/6
f 527/1/6 526/1/6 528/1/6
f 527/2/6 528/2/6 529/2/6
f 529/2/6 528/2/6 530/2/6
f 531/1/6 532/1/6 533/1/6
f 533/1/6 532/1/6 534/1/6
f 533/2/6 534/2/6 535/2/6
f 535/2/6 534/2/6 536/2/6
f 537/1/6 538/1/6 539/1/6
f 539/1/6 538/1/6 540/1/6
f 539/2/6 540/2/6 541/2/6
f 541/2/6 540/2/6 542/2/6
f 543/1/6 544/1/6 545/1/6
f 545/1/6 544/1/6 546/1/6
f 545/2/6 546/2/6 547/2/6
f 547/2/6 546/2/6 548/2/6
f 549/1/6 550/1/6 551/1/6
f 551/1/6 550/1/6 552/1/6
f 551/2/6 552/2/6 553/2/6
f 553/2/6 552/2/6 554/2/6
f 555/1/6 556/1/6 557/1/6
f 557/1/6 556/1/6 558/1/6
f 557/2/6 558/2/6 559/2/6
f 559/2/6 558/2/6 560/2/6
f 561/1/6 562/1/6 563/1/6
f 563/1/6 562/1/6 564/1/6
f 563/2/6 564/2/6 565/2/6
f 565/2/6 564/2/6 566/2/6
