# MagicaVoxel @ Ephtracy

# group
o 

# material
mtllib portair.mtl
usemtl palette

# normals
vn -1 0 0
vn 1 0 0
vn 0 0 1
vn 0 0 -1
vn 0 -1 0
vn 0 1 0

# texcoords
vt 0.0292969 0.5
vt 0.185547 0.5
vt 0.396484 0.5
vt 0.841797 0.5
vt 0.873047 0.5
vt 0.904297 0.5
vt 0.908203 0.5
vt 0.912109 0.5
vt 0.994141 0.5

# verts
v 0 2 0
v 0 2 -4
v 0 2.1 0
v 0 2.1 -4
v 0 2.2 0
v 0 2.2 -4
v 0.8 2.1 -0.1
v 0.8 2.1 -1.6
v 0.8 2.2 -0.1
v 0.8 2.2 -1.6
v 0.9 2.1 -3.5
v 0.9 2.1 -3.7
v 0.9 2.1 -3.8
v 0.9 2.2 -3.5
v 0.9 2.2 -3.7
v 0.9 2.2 -3.8
v 1 2.1 -3.2
v 1 2.1 -3.5
v 1 2.2 -3.2
v 1 2.2 -3.5
v 1.1 2.1 -3.1
v 1.1 2.1 -3.2
v 1.1 2.2 -3.1
v 1.1 2.2 -3.2
v 1.2 2.1 -2.1
v 1.2 2.1 -3.1
v 1.2 2.2 -2.1
v 1.2 2.2 -2.8
v 1.2 2.2 -2.9
v 1.2 2.2 -3.1
v 1.2 2.3 -2.8
v 1.2 2.3 -2.9
v 1.3 2.2 -2.7
v 1.3 2.2 -2.8
v 1.3 2.2 -3.1
v 1.3 2.2 -3.2
v 1.3 2.3 -2.7
v 1.3 2.3 -2.8
v 1.3 2.3 -3.1
v 1.3 2.3 -3.2
v 1.4 2.2 -2.5
v 1.4 2.2 -2.7
v 1.4 2.2 -3
v 1.4 2.2 -3.1
v 1.4 2.3 -2.5
v 1.4 2.3 -2.7
v 1.4 2.3 -3
v 1.4 2.3 -3.1
v 1.6 2.1 -1.6
v 1.6 2.1 -2.1
v 1.6 2.2 -1.6
v 1.6 2.2 -2.1
v 1.6 2.2 -2.9
v 1.6 2.2 -3
v 1.6 2.3 -2.9
v 1.6 2.3 -3
v 1.8 2.2 -3.3
v 1.8 2.2 -3.4
v 1.8 2.2 -3.5
v 1.8 2.2 -3.6
v 1.8 2.3 -3.3
v 1.8 2.3 -3.4
v 1.8 2.3 -3.5
v 1.8 2.3 -3.6
v 1.9 2.2 -3.4
v 1.9 2.2 -3.5
v 1.9 2.2 -3.6
v 1.9 2.2 -3.7
v 1.9 2.3 -3.4
v 1.9 2.3 -3.5
v 1.9 2.3 -3.6
v 1.9 2.3 -3.7
v 2.1 2.2 -2.5
v 2.1 2.2 -2.6
v 2.1 2.2 -2.7
v 2.1 2.2 -2.8
v 2.1 2.2 -3.3
v 2.1 2.2 -3.4
v 2.1 2.3 -2.5
v 2.1 2.3 -2.6
v 2.1 2.3 -2.7
v 2.1 2.3 -2.8
v 2.1 2.3 -3.3
v 2.1 2.3 -3.4
v 2.7 2.2 -2.8
v 2.7 2.2 -2.9
v 2.7 2.3 -2.8
v 2.7 2.3 -2.9
v 3.9 2.1 -0.1
v 3.9 2.1 -3.9
v 3.9 2.2 -0.1
v 3.9 2.2 -3.9
v 0.1 2.1 -0.1
v 0.1 2.1 -3.9
v 0.1 2.2 -0.1
v 0.1 2.2 -3.9
v 1.3 2.2 -2.8
v 1.3 2.2 -2.9
v 1.3 2.3 -2.8
v 1.3 2.3 -2.9
v 1.9 2.2 -2.5
v 1.9 2.2 -2.6
v 1.9 2.2 -2.7
v 1.9 2.2 -2.8
v 1.9 2.2 -3.3
v 1.9 2.2 -3.4
v 1.9 2.3 -2.5
v 1.9 2.3 -2.6
v 1.9 2.3 -2.7
v 1.9 2.3 -2.8
v 1.9 2.3 -3.3
v 1.9 2.3 -3.4
v 2.1 2.2 -3.4
v 2.1 2.2 -3.5
v 2.1 2.2 -3.6
v 2.1 2.2 -3.7
v 2.1 2.3 -3.4
v 2.1 2.3 -3.5
v 2.1 2.3 -3.6
v 2.1 2.3 -3.7
v 2.2 2.2 -3.3
v 2.2 2.2 -3.4
v 2.2 2.2 -3.5
v 2.2 2.2 -3.6
v 2.2 2.3 -3.3
v 2.2 2.3 -3.4
v 2.2 2.3 -3.5
v 2.2 2.3 -3.6
v 2.4 2.1 -1.6
v 2.4 2.1 -2.1
v 2.4 2.2 -1.6
v 2.4 2.2 -2.1
v 2.4 2.2 -2.9
v 2.4 2.2 -3
v 2.4 2.3 -2.9
v 2.4 2.3 -3
v 2.6 2.2 -2.5
v 2.6 2.2 -2.7
v 2.6 2.2 -3
v 2.6 2.2 -3.1
v 2.6 2.3 -2.5
v 2.6 2.3 -2.7
v 2.6 2.3 -3
v 2.6 2.3 -3.1
v 2.7 2.2 -2.7
v 2.7 2.2 -2.8
v 2.7 2.2 -3.1
v 2.7 2.2 -3.2
v 2.7 2.3 -2.7
v 2.7 2.3 -2.8
v 2.7 2.3 -3.1
v 2.7 2.3 -3.2
v 2.8 2.1 -2.1
v 2.8 2.1 -3.1
v 2.8 2.2 -2.1
v 2.8 2.2 -2.8
v 2.8 2.2 -2.9
v 2.8 2.2 -3.1
v 2.8 2.3 -2.8
v 2.8 2.3 -2.9
v 2.9 2.1 -3.1
v 2.9 2.1 -3.2
v 2.9 2.2 -3.1
v 2.9 2.2 -3.2
v 3 2.1 -3.2
v 3 2.1 -3.5
v 3 2.2 -3.2
v 3 2.2 -3.5
v 3.1 2.1 -3.5
v 3.1 2.1 -3.7
v 3.1 2.1 -3.8
v 3.1 2.2 -3.5
v 3.1 2.2 -3.7
v 3.1 2.2 -3.8
v 3.2 2.1 -0.1
v 3.2 2.1 -1.6
v 3.2 2.2 -0.1
v 3.2 2.2 -1.6
v 4 2 0
v 4 2 -4
v 4 2.1 0
v 4 2.1 -4
v 4 2.2 0
v 4 2.2 -4
v 0 2 0
v 0 2.1 0
v 0 2.2 0
v 4 2 0
v 4 2.1 0
v 4 2.2 0
v 1.2 2.1 -2.1
v 1.2 2.2 -2.1
v 1.6 2.1 -2.1
v 1.6 2.2 -2.1
v 2.4 2.1 -2.1
v 2.4 2.2 -2.1
v 2.8 2.1 -2.1
v 2.8 2.2 -2.1
v 1.4 2.2 -2.5
v 1.4 2.3 -2.5
v 1.9 2.2 -2.5
v 1.9 2.3 -2.5
v 2.1 2.2 -2.5
v 2.1 2.3 -2.5
v 2.6 2.2 -2.5
v 2.6 2.3 -2.5
v 1.9 2.2 -2.6
v 1.9 2.3 -2.6
v 2.1 2.2 -2.6
v 2.1 2.3 -2.6
v 1.3 2.2 -2.7
v 1.3 2.3 -2.7
v 1.4 2.2 -2.7
v 1.4 2.3 -2.7
v 2.6 2.2 -2.7
v 2.6 2.3 -2.7
v 2.7 2.2 -2.7
v 2.7 2.3 -2.7
v 1.2 2.2 -2.8
v 1.2 2.3 -2.8
v 1.3 2.2 -2.8
v 1.3 2.3 -2.8
v 2.7 2.2 -2.8
v 2.7 2.3 -2.8
v 2.8 2.2 -2.8
v 2.8 2.3 -2.8
v 1.6 2.2 -2.9
v 1.6 2.3 -2.9
v 2.4 2.2 -2.9
v 2.4 2.3 -2.9
v 1.4 2.2 -3
v 1.4 2.3 -3
v 1.6 2.2 -3
v 1.6 2.3 -3
v 2.4 2.2 -3
v 2.4 2.3 -3
v 2.6 2.2 -3
v 2.6 2.3 -3
v 1.1 2.1 -3.1
v 1.1 2.2 -3.1
v 1.2 2.1 -3.1
v 1.2 2.2 -3.1
v 1.3 2.2 -3.1
v 1.3 2.3 -3.1
v 1.4 2.2 -3.1
v 1.4 2.3 -3.1
v 2.6 2.2 -3.1
v 2.6 2.3 -3.1
v 2.7 2.2 -3.1
v 2.7 2.3 -3.1
v 2.8 2.1 -3.1
v 2.8 2.2 -3.1
v 2.9 2.1 -3.1
v 2.9 2.2 -3.1
v 1 2.1 -3.2
v 1 2.2 -3.2
v 1.1 2.1 -3.2
v 1.1 2.2 -3.2
v 2.9 2.1 -3.2
v 2.9 2.2 -3.2
v 3 2.1 -3.2
v 3 2.2 -3.2
v 1.8 2.2 -3.3
v 1.8 2.3 -3.3
v 1.9 2.2 -3.3
v 1.9 2.3 -3.3
v 2.1 2.2 -3.3
v 2.1 2.3 -3.3
v 2.2 2.2 -3.3
v 2.2 2.3 -3.3
v 1.9 2.2 -3.4
v 1.9 2.3 -3.4
v 2.1 2.2 -3.4
v 2.1 2.3 -3.4
v 0.9 2.1 -3.5
v 0.9 2.2 -3.5
v 1 2.1 -3.5
v 1 2.2 -3.5
v 1.8 2.2 -3.5
v 1.8 2.3 -3.5
v 1.9 2.2 -3.5
v 1.9 2.3 -3.5
v 2.1 2.2 -3.5
v 2.1 2.3 -3.5
v 2.2 2.2 -3.5
v 2.2 2.3 -3.5
v 3 2.1 -3.5
v 3 2.2 -3.5
v 3.1 2.1 -3.5
v 3.1 2.2 -3.5
v 0.1 2.1 -3.9
v 0.1 2.2 -3.9
v 3.9 2.1 -3.9
v 3.9 2.2 -3.9
v 0.1 2.1 -0.1
v 0.1 2.2 -0.1
v 0.8 2.1 -0.1
v 0.8 2.2 -0.1
v 3.2 2.1 -0.1
v 3.2 2.2 -0.1
v 3.9 2.1 -0.1
v 3.9 2.2 -0.1
v 0.8 2.1 -1.6
v 0.8 2.2 -1.6
v 1.6 2.1 -1.6
v 1.6 2.2 -1.6
v 2.4 2.1 -1.6
v 2.4 2.2 -1.6
v 3.2 2.1 -1.6
v 3.2 2.2 -1.6
v 1.9 2.2 -2.7
v 1.9 2.3 -2.7
v 2.1 2.2 -2.7
v 2.1 2.3 -2.7
v 1.3 2.2 -2.8
v 1.3 2.3 -2.8
v 1.9 2.2 -2.8
v 1.9 2.3 -2.8
v 2.1 2.2 -2.8
v 2.1 2.3 -2.8
v 2.7 2.2 -2.8
v 2.7 2.3 -2.8
v 1.2 2.2 -2.9
v 1.2 2.3 -2.9
v 1.3 2.2 -2.9
v 1.3 2.3 -2.9
v 2.7 2.2 -2.9
v 2.7 2.3 -2.9
v 2.8 2.2 -2.9
v 2.8 2.3 -2.9
v 1.3 2.2 -3.2
v 1.3 2.3 -3.2
v 2.7 2.2 -3.2
v 2.7 2.3 -3.2
v 1.8 2.2 -3.4
v 1.8 2.3 -3.4
v 1.9 2.2 -3.4
v 1.9 2.3 -3.4
v 2.1 2.2 -3.4
v 2.1 2.3 -3.4
v 2.2 2.2 -3.4
v 2.2 2.3 -3.4
v 1.8 2.2 -3.6
v 1.8 2.3 -3.6
v 1.9 2.2 -3.6
v 1.9 2.3 -3.6
v 2.1 2.2 -3.6
v 2.1 2.3 -3.6
v 2.2 2.2 -3.6
v 2.2 2.3 -3.6
v 1.9 2.2 -3.7
v 1.9 2.3 -3.7
v 2.1 2.2 -3.7
v 2.1 2.3 -3.7
v 0.9 2.1 -3.8
v 0.9 2.2 -3.8
v 3.1 2.1 -3.8
v 3.1 2.2 -3.8
v 0 2 -4
v 0 2.1 -4
v 0 2.2 -4
v 4 2 -4
v 4 2.1 -4
v 4 2.2 -4
v 0 2 0
v 4 2 0
v 0 2 -4
v 4 2 -4
v 0.1 2.1 -0.1
v 0.8 2.1 -0.1
v 3.2 2.1 -0.1
v 3.9 2.1 -0.1
v 0.8 2.1 -1.6
v 1.6 2.1 -1.6
v 2.4 2.1 -1.6
v 3.2 2.1 -1.6
v 1.2 2.1 -2.1
v 1.6 2.1 -2.1
v 2.4 2.1 -2.1
v 2.8 2.1 -2.1
v 1.1 2.1 -3.1
v 1.2 2.1 -3.1
v 2.8 2.1 -3.1
v 2.9 2.1 -3.1
v 1 2.1 -3.2
v 1.1 2.1 -3.2
v 2.9 2.1 -3.2
v 3 2.1 -3.2
v 0.9 2.1 -3.5
v 1 2.1 -3.5
v 3 2.1 -3.5
v 3.1 2.1 -3.5
v 0.9 2.1 -3.7
v 3.1 2.1 -3.7
v 0.9 2.1 -3.8
v 3.1 2.1 -3.8
v 0.1 2.1 -3.9
v 3.9 2.1 -3.9
v 0 2.2 0
v 4 2.2 0
v 0.1 2.2 -0.1
v 0.8 2.2 -0.1
v 3.2 2.2 -0.1
v 3.9 2.2 -0.1
v 0.8 2.2 -1.6
v 1.6 2.2 -1.6
v 2.4 2.2 -1.6
v 3.2 2.2 -1.6
v 1.2 2.2 -2.1
v 1.6 2.2 -2.1
v 2.4 2.2 -2.1
v 2.8 2.2 -2.1
v 1.4 2.2 -2.5
v 1.9 2.2 -2.5
v 2.1 2.2 -2.5
v 2.6 2.2 -2.5
v 1.9 2.2 -2.6
v 2.1 2.2 -2.6
v 1.3 2.2 -2.7
v 1.4 2.2 -2.7
v 1.9 2.2 -2.7
v 2.1 2.2 -2.7
v 2.6 2.2 -2.7
v 2.7 2.2 -2.7
v 1.2 2.2 -2.8
v 1.3 2.2 -2.8
v 1.9 2.2 -2.8
v 2.1 2.2 -2.8
v 2.7 2.2 -2.8
v 2.8 2.2 -2.8
v 1.2 2.2 -2.9
v 1.3 2.2 -2.9
v 1.6 2.2 -2.9
v 2.4 2.2 -2.9
v 2.7 2.2 -2.9
v 2.8 2.2 -2.9
v 1.4 2.2 -3
v 1.6 2.2 -3
v 2.4 2.2 -3
v 2.6 2.2 -3
v 1.1 2.2 -3.1
v 1.2 2.2 -3.1
v 1.3 2.2 -3.1
v 1.4 2.2 -3.1
v 2.6 2.2 -3.1
v 2.7 2.2 -3.1
v 2.8 2.2 -3.1
v 2.9 2.2 -3.1
v 1 2.2 -3.2
v 1.1 2.2 -3.2
v 1.3 2.2 -3.2
v 2.7 2.2 -3.2
v 2.9 2.2 -3.2
v 3 2.2 -3.2
v 1.8 2.2 -3.3
v 1.9 2.2 -3.3
v 2.1 2.2 -3.3
v 2.2 2.2 -3.3
v 1.8 2.2 -3.4
v 1.9 2.2 -3.4
v 2.1 2.2 -3.4
v 2.2 2.2 -3.4
v 0.9 2.2 -3.5
v 1 2.2 -3.5
v 1.8 2.2 -3.5
v 1.9 2.2 -3.5
v 2.1 2.2 -3.5
v 2.2 2.2 -3.5
v 3 2.2 -3.5
v 3.1 2.2 -3.5
v 1.8 2.2 -3.6
v 1.9 2.2 -3.6
v 2.1 2.2 -3.6
v 2.2 2.2 -3.6
v 0.9 2.2 -3.7
v 1.9 2.2 -3.7
v 2.1 2.2 -3.7
v 3.1 2.2 -3.7
v 0.9 2.2 -3.8
v 3.1 2.2 -3.8
v 0.1 2.2 -3.9
v 3.9 2.2 -3.9
v 0 2.2 -4
v 4 2.2 -4
v 1.4 2.3 -2.5
v 1.9 2.3 -2.5
v 2.1 2.3 -2.5
v 2.6 2.3 -2.5
v 1.9 2.3 -2.6
v 2.1 2.3 -2.6
v 1.3 2.3 -2.7
v 1.4 2.3 -2.7
v 1.9 2.3 -2.7
v 2.1 2.3 -2.7
v 2.6 2.3 -2.7
v 2.7 2.3 -2.7
v 1.2 2.3 -2.8
v 1.3 2.3 -2.8
v 1.9 2.3 -2.8
v 2.1 2.3 -2.8
v 2.7 2.3 -2.8
v 2.8 2.3 -2.8
v 1.2 2.3 -2.9
v 1.3 2.3 -2.9
v 1.6 2.3 -2.9
v 2.4 2.3 -2.9
v 2.7 2.3 -2.9
v 2.8 2.3 -2.9
v 1.4 2.3 -3
v 1.6 2.3 -3
v 2.4 2.3 -3
v 2.6 2.3 -3
v 1.3 2.3 -3.1
v 1.4 2.3 -3.1
v 2.6 2.3 -3.1
v 2.7 2.3 -3.1
v 1.3 2.3 -3.2
v 2.7 2.3 -3.2
v 1.8 2.3 -3.3
v 1.9 2.3 -3.3
v 2.1 2.3 -3.3
v 2.2 2.3 -3.3
v 1.8 2.3 -3.4
v 1.9 2.3 -3.4
v 2.1 2.3 -3.4
v 2.2 2.3 -3.4
v 1.8 2.3 -3.5
v 1.9 2.3 -3.5
v 2.1 2.3 -3.5
v 2.2 2.3 -3.5
v 1.8 2.3 -3.6
v 1.9 2.3 -3.6
v 2.1 2.3 -3.6
v 2.2 2.3 -3.6
v 1.9 2.3 -3.7
v 2.1 2.3 -3.7

# faces
f 3/5/1 2/5/1 1/5/1
f 4/5/1 2/5/1 3/5/1
f 5/2/1 4/2/1 3/2/1
f 6/2/1 4/2/1 5/2/1
f 9/6/1 8/6/1 7/6/1
f 10/6/1 8/6/1 9/6/1
f 14/7/1 12/7/1 11/7/1
f 15/8/1 13/8/1 12/8/1
f 15/7/1 12/7/1 14/7/1
f 16/8/1 13/8/1 15/8/1
f 19/7/1 18/7/1 17/7/1
f 20/7/1 18/7/1 19/7/1
f 23/7/1 22/7/1 21/7/1
f 24/7/1 22/7/1 23/7/1
f 27/1/1 26/1/1 25/1/1
f 28/1/1 26/1/1 27/1/1
f 29/1/1 26/1/1 28/1/1
f 30/1/1 26/1/1 29/1/1
f 31/9/1 29/9/1 28/9/1
f 32/9/1 29/9/1 31/9/1
f 37/9/1 34/9/1 33/9/1
f 38/9/1 34/9/1 37/9/1
f 39/3/1 36/3/1 35/3/1
f 40/3/1 36/3/1 39/3/1
f 45/9/1 42/9/1 41/9/1
f 46/9/1 42/9/1 45/9/1
f 47/3/1 44/3/1 43/3/1
f 48/3/1 44/3/1 47/3/1
f 51/1/1 50/1/1 49/1/1
f 52/1/1 50/1/1 51/1/1
f 55/3/1 54/3/1 53/3/1
f 56/3/1 54/3/1 55/3/1
f 61/4/1 58/4/1 57/4/1
f 62/4/1 58/4/1 61/4/1
f 63/4/1 60/4/1 59/4/1
f 64/4/1 60/4/1 63/4/1
f 69/4/1 66/4/1 65/4/1
f 70/4/1 66/4/1 69/4/1
f 71/4/1 68/4/1 67/4/1
f 72/4/1 68/4/1 71/4/1
f 79/9/1 74/9/1 73/9/1
f 80/9/1 74/9/1 79/9/1
f 81/9/1 76/9/1 75/9/1
f 82/9/1 76/9/1 81/9/1
f 83/4/1 78/4/1 77/4/1
f 84/4/1 78/4/1 83/4/1
f 87/9/1 86/9/1 85/9/1
f 88/9/1 86/9/1 87/9/1
f 91/2/1 90/2/1 89/2/1
f 92/2/1 90/2/1 91/2/1
f 93/2/2 94/2/2 95/2/2
f 95/2/2 94/2/2 96/2/2
f 97/9/2 98/9/2 99/9/2
f 99/9/2 98/9/2 100/9/2
f 101/9/2 102/9/2 107/9/2
f 107/9/2 102/9/2 108/9/2
f 103/9/2 104/9/2 109/9/2
f 109/9/2 104/9/2 110/9/2
f 105/4/2 106/4/2 111/4/2
f 111/4/2 106/4/2 112/4/2
f 113/4/2 114/4/2 117/4/2
f 117/4/2 114/4/2 118/4/2
f 115/4/2 116/4/2 119/4/2
f 119/4/2 116/4/2 120/4/2
f 121/4/2 122/4/2 125/4/2
f 125/4/2 122/4/2 126/4/2
f 123/4/2 124/4/2 127/4/2
f 127/4/2 124/4/2 128/4/2
f 129/1/2 130/1/2 131/1/2
f 131/1/2 130/1/2 132/1/2
f 133/3/2 134/3/2 135/3/2
f 135/3/2 134/3/2 136/3/2
f 137/9/2 138/9/2 141/9/2
f 141/9/2 138/9/2 142/9/2
f 139/3/2 140/3/2 143/3/2
f 143/3/2 140/3/2 144/3/2
f 145/9/2 146/9/2 149/9/2
f 149/9/2 146/9/2 150/9/2
f 147/3/2 148/3/2 151/3/2
f 151/3/2 148/3/2 152/3/2
f 153/1/2 154/1/2 155/1/2
f 155/1/2 154/1/2 156/1/2
f 156/1/2 154/1/2 157/1/2
f 157/1/2 154/1/2 158/1/2
f 156/9/2 157/9/2 159/9/2
f 159/9/2 157/9/2 160/9/2
f 161/7/2 162/7/2 163/7/2
f 163/7/2 162/7/2 164/7/2
f 165/7/2 166/7/2 167/7/2
f 167/7/2 166/7/2 168/7/2
f 169/7/2 170/7/2 172/7/2
f 170/8/2 171/8/2 173/8/2
f 172/7/2 170/7/2 173/7/2
f 173/8/2 171/8/2 174/8/2
f 175/6/2 176/6/2 177/6/2
f 177/6/2 176/6/2 178/6/2
f 179/5/2 180/5/2 181/5/2
f 181/5/2 180/5/2 182/5/2
f 181/2/2 182/2/2 183/2/2
f 183/2/2 182/2/2 184/2/2
f 188/5/3 186/5/3 185/5/3
f 189/2/3 187/2/3 186/2/3
f 189/5/3 186/5/3 188/5/3
f 190/2/3 187/2/3 189/2/3
f 193/1/3 192/1/3 191/1/3
f 194/1/3 192/1/3 193/1/3
f 197/1/3 196/1/3 195/1/3
f 198/1/3 196/1/3 197/1/3
f 201/9/3 200/9/3 199/9/3
f 202/9/3 200/9/3 201/9/3
f 205/9/3 204/9/3 203/9/3
f 206/9/3 204/9/3 205/9/3
f 209/9/3 208/9/3 207/9/3
f 210/9/3 208/9/3 209/9/3
f 213/9/3 212/9/3 211/9/3
f 214/9/3 212/9/3 213/9/3
f 217/9/3 216/9/3 215/9/3
f 218/9/3 216/9/3 217/9/3
f 221/9/3 220/9/3 219/9/3
f 222/9/3 220/9/3 221/9/3
f 225/9/3 224/9/3 223/9/3
f 226/9/3 224/9/3 225/9/3
f 229/3/3 228/3/3 227/3/3
f 230/3/3 228/3/3 229/3/3
f 233/3/3 232/3/3 231/3/3
f 234/3/3 232/3/3 233/3/3
f 237/3/3 236/3/3 235/3/3
f 238/3/3 236/3/3 237/3/3
f 241/7/3 240/7/3 239/7/3
f 242/7/3 240/7/3 241/7/3
f 245/3/3 244/3/3 243/3/3
f 246/3/3 244/3/3 245/3/3
f 249/3/3 248/3/3 247/3/3
f 250/3/3 248/3/3 249/3/3
f 253/7/3 252/7/3 251/7/3
f 254/7/3 252/7/3 253/7/3
f 257/7/3 256/7/3 255/7/3
f 258/7/3 256/7/3 257/7/3
f 261/7/3 260/7/3 259/7/3
f 262/7/3 260/7/3 261/7/3
f 265/4/3 264/4/3 263/4/3
f 266/4/3 264/4/3 265/4/3
f 269/4/3 268/4/3 267/4/3
f 270/4/3 268/4/3 269/4/3
f 273/4/3 272/4/3 271/4/3
f 274/4/3 272/4/3 273/4/3
f 277/7/3 276/7/3 275/7/3
f 278/7/3 276/7/3 277/7/3
f 281/4/3 280/4/3 279/4/3
f 282/4/3 280/4/3 281/4/3
f 285/4/3 284/4/3 283/4/3
f 286/4/3 284/4/3 285/4/3
f 289/7/3 288/7/3 287/7/3
f 290/7/3 288/7/3 289/7/3
f 293/2/3 292/2/3 291/2/3
f 294/2/3 292/2/3 293/2/3
f 295/2/4 296/2/4 297/2/4
f 297/2/4 296/2/4 298/2/4
f 299/2/4 300/2/4 301/2/4
f 301/2/4 300/2/4 302/2/4
f 303/6/4 304/6/4 305/6/4
f 305/6/4 304/6/4 306/6/4
f 307/6/4 308/6/4 309/6/4
f 309/6/4 308/6/4 310/6/4
f 311/9/4 312/9/4 313/9/4
f 313/9/4 312/9/4 314/9/4
f 315/9/4 316/9/4 317/9/4
f 317/9/4 316/9/4 318/9/4
f 319/9/4 320/9/4 321/9/4
f 321/9/4 320/9/4 322/9/4
f 323/9/4 324/9/4 325/9/4
f 325/9/4 324/9/4 326/9/4
f 327/9/4 328/9/4 329/9/4
f 329/9/4 328/9/4 330/9/4
f 331/3/4 332/3/4 333/3/4
f 333/3/4 332/3/4 334/3/4
f 335/4/4 336/4/4 337/4/4
f 337/4/4 336/4/4 338/4/4
f 339/4/4 340/4/4 341/4/4
f 341/4/4 340/4/4 342/4/4
f 343/4/4 344/4/4 345/4/4
f 345/4/4 344/4/4 346/4/4
f 347/4/4 348/4/4 349/4/4
f 349/4/4 348/4/4 350/4/4
f 351/4/4 352/4/4 353/4/4
f 353/4/4 352/4/4 354/4/4
f 355/8/4 356/8/4 357/8/4
f 357/8/4 356/8/4 358/8/4
f 359/5/4 360/5/4 362/5/4
f 360/2/4 361/2/4 363/2/4
f 362/5/4 360/5/4 363/5/4
f 363/2/4 361/2/4 364/2/4
f 367/5/5 366/5/5 365/5/5
f 368/5/5 366/5/5 367/5/5
f 369/5/6 370/5/6 373/5/6
f 371/5/6 372/5/6 376/5/6
f 373/5/6 374/5/6 377/5/6
f 377/5/6 374/5/6 378/5/6
f 375/5/6 376/5/6 379/5/6
f 379/5/6 376/5/6 380/5/6
f 373/5/6 377/5/6 381/5/6
f 381/5/6 377/5/6 382/5/6
f 380/5/6 376/5/6 383/5/6
f 383/5/6 376/5/6 384/5/6
f 373/5/6 381/5/6 385/5/6
f 385/5/6 381/5/6 386/5/6
f 384/5/6 376/5/6 387/5/6
f 387/5/6 376/5/6 388/5/6
f 373/5/6 385/5/6 389/5/6
f 389/5/6 385/5/6 390/5/6
f 388/5/6 376/5/6 391/5/6
f 391/5/6 376/5/6 392/5/6
f 373/5/6 389/5/6 393/5/6
f 392/5/6 376/5/6 394/5/6
f 373/5/6 393/5/6 395/5/6
f 394/5/6 376/5/6 396/5/6
f 373/5/6 395/5/6 397/5/6
f 395/5/6 396/5/6 397/5/6
f 369/5/6 373/5/6 397/5/6
f 396/5/6 376/5/6 398/5/6
f 397/5/6 396/5/6 398/5/6
f 376/5/6 372/5/6 398/5/6
f 399/2/6 400/2/6 401/2/6
f 401/2/6 400/2/6 402/2/6
f 402/2/6 400/2/6 403/2/6
f 403/2/6 400/2/6 404/2/6
f 402/6/6 403/6/6 405/6/6
f 405/6/6 403/6/6 406/6/6
f 406/6/6 403/6/6 407/6/6
f 407/6/6 403/6/6 408/6/6
f 406/1/6 407/1/6 410/1/6
f 410/1/6 407/1/6 411/1/6
f 409/1/6 410/1/6 413/1/6
f 411/1/6 412/1/6 413/1/6
f 410/1/6 411/1/6 413/1/6
f 413/1/6 412/1/6 414/1/6
f 414/1/6 412/1/6 415/1/6
f 415/1/6 412/1/6 416/1/6
f 414/1/6 415/1/6 417/1/6
f 417/1/6 415/1/6 418/1/6
f 409/1/6 413/1/6 419/1/6
f 419/1/6 413/1/6 420/1/6
f 416/1/6 412/1/6 423/1/6
f 423/1/6 412/1/6 424/1/6
f 409/1/6 419/1/6 425/1/6
f 425/1/6 419/1/6 426/1/6
f 421/1/6 422/1/6 427/1/6
f 427/1/6 422/1/6 428/1/6
f 424/1/6 412/1/6 429/1/6
f 429/1/6 412/1/6 430/1/6
f 427/1/6 428/1/6 432/1/6
f 428/1/6 429/1/6 432/1/6
f 426/1/6 427/1/6 432/1/6
f 432/1/6 429/1/6 433/1/6
f 433/1/6 429/1/6 434/1/6
f 434/1/6 429/1/6 435/1/6
f 431/1/6 432/1/6 437/1/6
f 432/1/6 433/1/6 437/1/6
f 437/1/6 433/1/6 438/1/6
f 435/1/6 436/1/6 439/1/6
f 434/1/6 435/1/6 439/1/6
f 439/1/6 436/1/6 440/1/6
f 431/1/6 437/1/6 442/1/6
f 442/1/6 437/1/6 443/1/6
f 443/1/6 437/1/6 444/1/6
f 440/1/6 436/1/6 445/1/6
f 445/1/6 436/1/6 446/1/6
f 446/1/6 436/1/6 447/1/6
f 441/7/6 442/7/6 450/7/6
f 442/7/6 443/7/6 450/7/6
f 450/7/6 443/7/6 451/7/6
f 446/7/6 447/7/6 452/7/6
f 447/7/6 448/7/6 452/7/6
f 452/7/6 448/7/6 453/7/6
f 450/7/6 451/7/6 455/7/6
f 453/7/6 454/7/6 455/7/6
f 452/7/6 453/7/6 455/7/6
f 451/7/6 452/7/6 455/7/6
f 449/7/6 450/7/6 455/7/6
f 455/7/6 454/7/6 456/7/6
f 456/7/6 454/7/6 457/7/6
f 457/7/6 454/7/6 458/7/6
f 449/7/6 455/7/6 459/7/6
f 456/7/6 457/7/6 460/7/6
f 460/7/6 457/7/6 461/7/6
f 458/7/6 454/7/6 462/7/6
f 449/7/6 459/7/6 464/7/6
f 459/7/6 460/7/6 464/7/6
f 464/7/6 460/7/6 465/7/6
f 465/7/6 460/7/6 466/7/6
f 461/7/6 462/7/6 467/7/6
f 462/7/6 454/7/6 468/7/6
f 467/7/6 462/7/6 468/7/6
f 468/7/6 454/7/6 469/7/6
f 463/7/6 464/7/6 471/7/6
f 464/7/6 465/7/6 471/7/6
f 469/7/6 470/7/6 474/7/6
f 468/7/6 469/7/6 474/7/6
f 471/7/6 472/7/6 475/7/6
f 463/7/6 471/7/6 475/7/6
f 475/7/6 472/7/6 476/7/6
f 473/7/6 474/7/6 477/7/6
f 474/7/6 470/7/6 478/7/6
f 477/7/6 474/7/6 478/7/6
f 475/8/6 476/8/6 479/8/6
f 476/8/6 477/8/6 479/8/6
f 477/8/6 478/8/6 479/8/6
f 479/8/6 478/8/6 480/8/6
f 399/2/6 401/2/6 481/2/6
f 404/2/6 400/2/6 482/2/6
f 399/2/6 481/2/6 483/2/6
f 481/2/6 482/2/6 483/2/6
f 482/2/6 400/2/6 484/2/6
f 483/2/6 482/2/6 484/2/6
f 485/9/6 486/9/6 489/9/6
f 487/9/6 488/9/6 490/9/6
f 485/9/6 489/9/6 492/9/6
f 489/9/6 490/9/6 492/9/6
f 492/9/6 490/9/6 493/9/6
f 490/9/6 488/9/6 494/9/6
f 493/9/6 490/9/6 494/9/6
f 494/9/6 488/9/6 495/9/6
f 492/9/6 493/9/6 498/9/6
f 491/9/6 492/9/6 498/9/6
f 498/9/6 493/9/6 499/9/6
f 494/9/6 495/9/6 500/9/6
f 495/9/6 496/9/6 500/9/6
f 500/9/6 496/9/6 501/9/6
f 497/9/6 498/9/6 503/9/6
f 503/9/6 498/9/6 504/9/6
f 501/9/6 502/9/6 507/9/6
f 507/9/6 502/9/6 508/9/6
f 505/3/6 506/3/6 510/3/6
f 510/3/6 506/3/6 511/3/6
f 509/3/6 510/3/6 514/3/6
f 511/3/6 512/3/6 514/3/6
f 510/3/6 511/3/6 514/3/6
f 514/3/6 512/3/6 515/3/6
f 513/3/6 514/3/6 517/3/6
f 515/3/6 516/3/6 517/3/6
f 514/3/6 515/3/6 517/3/6
f 517/3/6 516/3/6 518/3/6
f 519/4/6 520/4/6 523/4/6
f 523/4/6 520/4/6 524/4/6
f 521/4/6 522/4/6 525/4/6
f 525/4/6 522/4/6 526/4/6
f 524/4/6 525/4/6 528/4/6
f 528/4/6 525/4/6 529/4/6
f 527/4/6 528/4/6 531/4/6
f 529/4/6 530/4/6 531/4/6
f 528/4/6 529/4/6 531/4/6
f 531/4/6 530/4/6 532/4/6
f 532/4/6 530/4/6 533/4/6
f 533/4/6 530/4/6 534/4/6
f 532/4/6 533/4/6 535/4/6
f 535/4/6 533/4/6 536/4/6
