# MagicaVoxel @ Ephtracy

# group
o 

# material
mtllib lever.mtl
usemtl palette

# normals
vn -1 0 0
vn 1 0 0
vn 0 0 1
vn 0 0 -1
vn 0 -1 0
vn 0 1 0

# texcoords
vt 0.537109 0.5
vt 0.982422 0.5

# verts
v 0 2.1 0
v 0 2.1 -0.8
v 0 2.2 0
v 0 2.2 -0.8
v 0.9 2 -0.2
v 0.9 2 -0.6
v 0.9 2.1 -0.2
v 0.9 2.1 -0.3
v 0.9 2.1 -0.5
v 0.9 2.1 -0.6
v 1.9 2.1 0
v 1.9 2.1 -0.2
v 1.9 2.1 -0.3
v 1.9 2.1 -0.5
v 1.9 2.1 -0.6
v 1.9 2.1 -0.8
v 1.9 2.2 0
v 1.9 2.2 -0.2
v 1.9 2.2 -0.3
v 1.9 2.2 -0.5
v 1.9 2.2 -0.6
v 1.9 2.2 -0.8
v 0.1 2.1 0
v 0.1 2.1 -0.2
v 0.1 2.1 -0.3
v 0.1 2.1 -0.5
v 0.1 2.1 -0.6
v 0.1 2.1 -0.8
v 0.1 2.2 0
v 0.1 2.2 -0.2
v 0.1 2.2 -0.3
v 0.1 2.2 -0.5
v 0.1 2.2 -0.6
v 0.1 2.2 -0.8
v 1.1 2 -0.2
v 1.1 2 -0.6
v 1.1 2.1 -0.2
v 1.1 2.1 -0.3
v 1.1 2.1 -0.5
v 1.1 2.1 -0.6
v 2 2.1 0
v 2 2.1 -0.8
v 2 2.2 0
v 2 2.2 -0.8
v 0 2.1 0
v 0 2.2 0
v 0.1 2.1 0
v 0.1 2.2 0
v 1.9 2.1 0
v 1.9 2.2 0
v 2 2.1 0
v 2 2.2 0
v 0.1 2.1 -0.2
v 0.1 2.2 -0.2
v 0.9 2 -0.2
v 0.9 2.1 -0.2
v 1.1 2 -0.2
v 1.1 2.1 -0.2
v 1.9 2.1 -0.2
v 1.9 2.2 -0.2
v 0.1 2.1 -0.5
v 0.1 2.2 -0.5
v 0.9 2.1 -0.5
v 1.1 2.1 -0.5
v 1.9 2.1 -0.5
v 1.9 2.2 -0.5
v 0.1 2.1 -0.3
v 0.1 2.2 -0.3
v 0.9 2.1 -0.3
v 1.1 2.1 -0.3
v 1.9 2.1 -0.3
v 1.9 2.2 -0.3
v 0.1 2.1 -0.6
v 0.1 2.2 -0.6
v 0.9 2 -0.6
v 0.9 2.1 -0.6
v 1.1 2 -0.6
v 1.1 2.1 -0.6
v 1.9 2.1 -0.6
v 1.9 2.2 -0.6
v 0 2.1 -0.8
v 0 2.2 -0.8
v 0.1 2.1 -0.8
v 0.1 2.2 -0.8
v 1.9 2.1 -0.8
v 1.9 2.2 -0.8
v 2 2.1 -0.8
v 2 2.2 -0.8
v 0.9 2 -0.2
v 1.1 2 -0.2
v 0.9 2 -0.6
v 1.1 2 -0.6
v 0 2.1 0
v 0.1 2.1 0
v 1.9 2.1 0
v 2 2.1 0
v 0.1 2.1 -0.2
v 0.9 2.1 -0.2
v 1.1 2.1 -0.2
v 1.9 2.1 -0.2
v 0.1 2.1 -0.3
v 0.9 2.1 -0.3
v 1.1 2.1 -0.3
v 1.9 2.1 -0.3
v 0.1 2.1 -0.5
v 0.9 2.1 -0.5
v 1.1 2.1 -0.5
v 1.9 2.1 -0.5
v 0.1 2.1 -0.6
v 0.9 2.1 -0.6
v 1.1 2.1 -0.6
v 1.9 2.1 -0.6
v 0 2.1 -0.8
v 0.1 2.1 -0.8
v 1.9 2.1 -0.8
v 2 2.1 -0.8
v 0.9 2.1 -0.3
v 1.1 2.1 -0.3
v 0.9 2.1 -0.5
v 1.1 2.1 -0.5
v 0 2.2 0
v 0.1 2.2 0
v 1.9 2.2 0
v 2 2.2 0
v 0.1 2.2 -0.2
v 1.9 2.2 -0.2
v 0.1 2.2 -0.3
v 1.9 2.2 -0.3
v 0.1 2.2 -0.5
v 1.9 2.2 -0.5
v 0.1 2.2 -0.6
v 1.9 2.2 -0.6
v 0 2.2 -0.8
v 0.1 2.2 -0.8
v 1.9 2.2 -0.8
v 2 2.2 -0.8

# faces
f 3/1/1 2/1/1 1/1/1
f 4/1/1 2/1/1 3/1/1
f 7/2/1 6/2/1 5/2/1
f 8/2/1 6/2/1 7/2/1
f 9/2/1 6/2/1 8/2/1
f 10/2/1 6/2/1 9/2/1
f 17/1/1 12/1/1 11/1/1
f 18/1/1 12/1/1 17/1/1
f 19/1/1 14/1/1 13/1/1
f 20/1/1 14/1/1 19/1/1
f 21/1/1 16/1/1 15/1/1
f 22/1/1 16/1/1 21/1/1
f 23/1/2 24/1/2 29/1/2
f 29/1/2 24/1/2 30/1/2
f 25/1/2 26/1/2 31/1/2
f 31/1/2 26/1/2 32/1/2
f 27/1/2 28/1/2 33/1/2
f 33/1/2 28/1/2 34/1/2
f 35/2/2 36/2/2 37/2/2
f 37/2/2 36/2/2 38/2/2
f 38/2/2 36/2/2 39/2/2
f 39/2/2 36/2/2 40/2/2
f 41/1/2 42/1/2 43/1/2
f 43/1/2 42/1/2 44/1/2
f 47/1/3 46/1/3 45/1/3
f 48/1/3 46/1/3 47/1/3
f 51/1/3 50/1/3 49/1/3
f 52/1/3 50/1/3 51/1/3
f 56/2/3 54/2/3 53/2/3
f 57/2/3 56/2/3 55/2/3
f 58/2/3 54/2/3 56/2/3
f 58/2/3 56/2/3 57/2/3
f 59/2/3 54/2/3 58/2/3
f 60/2/3 54/2/3 59/2/3
f 63/2/3 62/2/3 61/2/3
f 64/2/3 62/2/3 63/2/3
f 65/2/3 62/2/3 64/2/3
f 66/2/3 62/2/3 65/2/3
f 67/2/4 68/2/4 69/2/4
f 69/2/4 68/2/4 70/2/4
f 70/2/4 68/2/4 71/2/4
f 71/2/4 68/2/4 72/2/4
f 73/2/4 74/2/4 76/2/4
f 75/2/4 76/2/4 77/2/4
f 76/2/4 74/2/4 78/2/4
f 77/2/4 76/2/4 78/2/4
f 78/2/4 74/2/4 79/2/4
f 79/2/4 74/2/4 80/2/4
f 81/1/4 82/1/4 83/1/4
f 83/1/4 82/1/4 84/1/4
f 85/1/4 86/1/4 87/1/4
f 87/1/4 86/1/4 88/1/4
f 91/2/5 90/2/5 89/2/5
f 92/2/5 90/2/5 91/2/5
f 97/1/5 94/1/5 93/1/5
f 100/1/5 96/1/5 95/1/5
f 101/2/5 98/2/5 97/2/5
f 101/1/5 97/1/5 93/1/5
f 102/2/5 98/2/5 101/2/5
f 103/2/5 100/2/5 99/2/5
f 104/1/5 96/1/5 100/1/5
f 104/2/5 100/2/5 103/2/5
f 105/1/5 101/1/5 93/1/5
f 108/1/5 96/1/5 104/1/5
f 109/2/5 106/2/5 105/2/5
f 109/1/5 105/1/5 93/1/5
f 110/2/5 106/2/5 109/2/5
f 111/2/5 108/2/5 107/2/5
f 112/1/5 96/1/5 108/1/5
f 112/2/5 108/2/5 111/2/5
f 113/1/5 109/1/5 93/1/5
f 114/1/5 109/1/5 113/1/5
f 115/1/5 96/1/5 112/1/5
f 116/1/5 96/1/5 115/1/5
f 117/2/6 118/2/6 119/2/6
f 119/2/6 118/2/6 120/2/6
f 121/1/6 122/1/6 125/1/6
f 123/1/6 124/1/6 126/1/6
f 121/1/6 125/1/6 127/1/6
f 125/2/6 126/2/6 127/2/6
f 126/1/6 124/1/6 128/1/6
f 127/2/6 126/2/6 128/2/6
f 121/1/6 127/1/6 129/1/6
f 128/1/6 124/1/6 130/1/6
f 121/1/6 129/1/6 131/1/6
f 129/2/6 130/2/6 131/2/6
f 130/1/6 124/1/6 132/1/6
f 131/2/6 130/2/6 132/2/6
f 121/1/6 131/1/6 133/1/6
f 133/1/6 131/1/6 134/1/6
f 132/1/6 124/1/6 135/1/6
f 135/1/6 124/1/6 136/1/6
